<svg width="20" height="22" viewBox="0 0 20 22" fill="none" xmlns="http://www.w3.org/2000/svg">
<path fill-rule="evenodd" clip-rule="evenodd" d="M14 0.25C14.4142 0.25 14.75 0.585786 14.75 1V2.36133C15.4526 2.44463 16.0559 2.59446 16.6104 2.87695C17.6923 3.42822 18.5718 4.30773 19.123 5.38965C19.4584 6.04778 19.6078 6.77513 19.6797 7.65527C19.7509 8.5266 19.75 9.61244 19.75 11V13C19.75 14.3876 19.7509 15.4734 19.6797 16.3447C19.6078 17.2249 19.4584 17.9522 19.123 18.6104C18.5718 19.6923 17.6923 20.5718 16.6104 21.123C15.9522 21.4584 15.2249 21.6078 14.3447 21.6797C13.4734 21.7509 12.3876 21.75 11 21.75H9C7.61244 21.75 6.5266 21.7509 5.65527 21.6797C4.77513 21.6078 4.04778 21.4584 3.38965 21.123C2.30774 20.5718 1.42822 19.6923 0.876954 18.6104C0.54162 17.9522 0.392223 17.2249 0.320313 16.3447C0.249148 15.4734 0.25 14.3876 0.25 13V11C0.25 9.61244 0.249148 8.5266 0.320313 7.65527C0.392223 6.77513 0.54162 6.04778 0.876954 5.38965C1.42822 4.30773 2.30774 3.42822 3.38965 2.87695C3.94407 2.59446 4.54742 2.44463 5.25 2.36133V1C5.25 0.585787 5.58579 0.250001 6 0.25C6.41421 0.25 6.75 0.585786 6.75 1V2.26855C7.39824 2.25186 8.14132 2.25 9 2.25H11C11.8587 2.25 12.6018 2.25186 13.25 2.26855V1C13.25 0.585787 13.5858 0.250001 14 0.25ZM6 7.75C5.58579 7.75 5.25 8.08579 5.25 8.5C5.25 8.91421 5.58579 9.25 6 9.25H14C14.4142 9.25 14.75 8.91421 14.75 8.5C14.75 8.08579 14.4142 7.75 14 7.75H6Z" fill="#6874E8"/>
</svg>
